<svg xmlns="http://www.w3.org/2000/svg" width="600" height="400" viewBox="0 0 600 400">
  <rect width="100%" height="100%" fill="none"/>
  <g stroke="#ffffff" stroke-opacity="0.25" fill="#ffffff" fill-opacity="0.25">
    <!-- Left layer -->
    <circle cx="80" cy="80" r="20"/>
    <circle cx="80" cy="200" r="20"/>
    <circle cx="80" cy="320" r="20"/>
    <!-- Hidden layer -->
    <circle cx="220" cy="60" r="20"/>
    <circle cx="220" cy="140" r="20"/>
    <circle cx="220" cy="220" r="20"/>
    <circle cx="220" cy="300" r="20"/>
    <!-- Right layer -->
    <circle cx="360" cy="80" r="20"/>
    <circle cx="360" cy="200" r="20"/>
    <circle cx="360" cy="320" r="20"/>
    <!-- Output layer -->
    <circle cx="500" cy="200" r="24"/>

    <!-- Connections -->
    <g stroke-width="6" fill="none">
      <!-- From left to hidden -->
      <path d="M100 80 C150 80, 150 60, 200 60"/>
      <path d="M100 80 C150 100, 150 140, 200 140"/>
      <path d="M100 80 C150 140, 150 220, 200 220"/>
      <path d="M100 80 C150 180, 150 300, 200 300"/>

      <path d="M100 200 C150 120, 150 60, 200 60"/>
      <path d="M100 200 C150 160, 150 140, 200 140"/>
      <path d="M100 200 C150 200, 150 220, 200 220"/>
      <path d="M100 200 C150 240, 150 300, 200 300"/>

      <path d="M100 320 C150 220, 150 60, 200 60"/>
      <path d="M100 320 C150 260, 150 140, 200 140"/>
      <path d="M100 320 C150 300, 150 220, 200 220"/>
      <path d="M100 320 C150 340, 150 300, 200 300"/>

      <!-- From hidden to right -->
      <path d="M240 60 C280 60, 300 80, 340 80"/>
      <path d="M240 60 C280 100, 300 200, 340 200"/>
      <path d="M240 60 C280 140, 300 320, 340 320"/>

      <path d="M240 140 C280 100, 300 80, 340 80"/>
      <path d="M240 140 C280 140, 300 200, 340 200"/>
      <path d="M240 140 C280 180, 300 320, 340 320"/>

      <path d="M240 220 C280 120, 300 80, 340 80"/>
      <path d="M240 220 C280 160, 300 200, 340 200"/>
      <path d="M240 220 C280 220, 300 320, 340 320"/>

      <path d="M240 300 C280 140, 300 80, 340 80"/>
      <path d="M240 300 C280 200, 300 200, 340 200"/>
      <path d="M240 300 C280 260, 300 320, 340 320"/>

      <!-- From right to output -->
      <path d="M380 80 C420 120, 460 160, 500 200"/>
      <path d="M380 200 C420 200, 460 200, 500 200"/>
      <path d="M380 320 C420 280, 460 240, 500 200"/>
    </g>
  </g>
</svg>
